<svg width="206" height="190" viewBox="0 0 206 190" fill="none" xmlns="http://www.w3.org/2000/svg">
<path d="M45.8098 96.7081C45.8098 96.7081 20.7291 91.8539 13.0183 124.915C5.30743 157.977 5.30743 188.637 5.30743 188.637L93.753 189.02C93.753 189.02 94.4948 110.724 80.113 102.759C65.7312 94.7951 45.8098 96.7081 45.8098 96.7081Z" fill="#2A2173"/>
<path d="M35.7681 122.615C35.7681 122.615 40.5753 146.517 41.6433 154.864C42.709 163.211 31.4491 166.159 31.4491 166.159C31.4491 166.159 27.5432 159.263 27.6183 158.554C27.6934 157.845 30.5102 122.613 30.5102 122.613H35.7704L35.7681 122.615Z" fill="black"/>
<path d="M1.00012 165.019C1.00012 165.019 7.31666 146.757 38.1506 150.353C38.1506 150.353 30.8294 168.53 1.00012 165.019Z" fill="black"/>
<path d="M73.3316 133.647C73.3316 133.647 74.7282 137.849 77.5403 136.666C80.3523 135.481 83.1503 133.232 83.1503 133.232C83.1503 133.232 86.5585 130.953 88.2462 134.581C88.2462 134.581 89.5278 137.194 84.6126 140.987C84.6126 140.987 86.9341 144.259 82.54 146.649C82.54 146.649 82.4203 151.01 77.4253 151.686C77.4253 151.686 78.904 153.597 76.5169 154.299C74.1297 155.001 70.2402 154.698 67.6066 154.364C67.6066 154.364 65.6302 153.372 64.7006 154.801C63.7711 156.23 60.0765 185.093 38.958 187.752C31.158 188.733 17.4005 189.499 11.591 179.825C11.591 179.825 5.58198 170.514 5.23458 149.881C5.23458 149.881 3.52106 124.322 9.54889 116.637C9.54889 116.637 15.7293 104.813 24.2992 105.245C24.2992 105.245 26.5737 108.766 27.0854 112.51C27.5971 116.254 29.0149 124.404 29.0149 124.404C29.0149 124.404 30.651 155.82 31.5805 156.787C32.51 157.754 33.7071 160.369 36.8924 158.043C40.0776 155.716 56.457 143.684 56.457 143.684C56.457 143.684 59.1446 140.339 59.7385 138.706C60.33 137.072 65.6067 130.507 73.3316 133.654V133.647Z" fill="white"/>
<path d="M59.6633 138.809C59.6633 138.809 63.0293 134.225 63.9002 133.429C64.771 132.633 67.4516 127.535 77.5027 130.178C87.5537 132.821 70.3669 136.682 70.3669 136.682L59.6657 138.809H59.6633Z" fill="white"/>
<path d="M76.9652 130.025C76.9652 130.025 69.2591 125.807 61.33 136.38L56.2481 143.799L35.6155 158.334C35.6155 158.334 31.8552 159.756 31.4491 155.385C31.043 151.015 27.9939 109.851 25.9611 107.409C23.9284 104.971 22.0999 105.252 22.0999 105.252" stroke="black" stroke-miterlimit="10"/>
<path d="M95.4453 53.3256C95.4453 53.3256 96.7927 72.8104 93.7037 80.9297C93.7037 80.9297 90.1992 97.0555 76.9628 100.703L68.0033 101.853C68.0033 101.853 70.2167 112.16 65.5574 115.179C61.675 117.695 55.1801 120.664 48.1453 114.942C45.5844 112.86 43.6948 110.066 42.5681 106.966C41.5212 104.083 40.2349 100.145 40.2678 98.2972L43.622 97.3747L49.056 83.7699C49.1921 83.4201 49.2485 83.0352 49.1757 82.6667C49.0842 82.1995 48.7954 81.7324 47.9551 81.9883C47.5185 82.1221 43.338 81.0541 43.6666 75.2328C43.9976 69.4115 46.3003 62.3134 53.9501 69.2191C53.9501 69.2191 54.9829 71.2424 54.5932 74.5732C54.5932 74.5732 54.1707 76.89 55.5721 76.2562C56.9734 75.6224 58.5155 74.9112 59.5437 66.1324C59.5437 66.1324 92.361 71.4185 95.4406 53.3233L95.4453 53.3256Z" fill="white"/>
<path d="M95.1002 48.7249C95.1002 48.7249 101.468 70.3927 59.5483 66.1347C59.5483 66.1347 58.7549 76.052 55.8654 76.2585C52.9736 76.4675 55.7175 73.8009 54.6542 70.5101C53.5909 67.2192 45.3848 61.7312 43.8051 72.9043C42.9741 78.7772 45.1712 81.4367 47.5044 81.9883C48.2109 82.1549 49.5512 81.1221 49.1381 83.9482L43.6267 97.7057" stroke="black" stroke-miterlimit="10"/>
<path d="M95.4453 53.3256C95.4453 53.3256 101.612 100.037 70.4984 101.666C66.8085 101.858 63.2124 100.264 60.952 98.2549C58.2949 95.8959 56.5602 90.7765 55.5767 83.3896" stroke="black" stroke-miterlimit="10"/>
<path d="M66.5338 101.222L64.7991 106.334" stroke="black" stroke-miterlimit="10"/>
<path d="M86.6571 77.681C87.4077 77.681 88.0162 77.0725 88.0162 76.3219C88.0162 75.5713 87.4077 74.9629 86.6571 74.9629C85.9065 74.9629 85.298 75.5713 85.298 76.3219C85.298 77.0725 85.9065 77.681 86.6571 77.681Z" fill="#231F20"/>
<path d="M71.1509 76.3219C71.9015 76.3219 72.51 75.7134 72.51 74.9628C72.51 74.2123 71.9015 73.6038 71.1509 73.6038C70.4003 73.6038 69.7918 74.2123 69.7918 74.9628C69.7918 75.7134 70.4003 76.3219 71.1509 76.3219Z" fill="#231F20"/>
<path d="M90.7085 73.3925C90.7085 73.3925 90.7296 69.374 85.8308 70.4209" stroke="#231F20" stroke-miterlimit="10"/>
<path d="M74.0053 69.3083C74.0053 69.3083 71.7753 65.9634 68.299 69.5712" stroke="#231F20" stroke-miterlimit="10"/>
<path d="M81.8874 75.8431L81.4039 88.1335L76.9651 86.8026" stroke="black" stroke-miterlimit="10"/>
<path d="M94.8679 70.6955C92.5347 71.9208 89.3635 62.4448 89.3635 62.4448C83.0071 68.5196 59.5507 66.1324 59.5507 66.1324C59.5507 66.1324 58.2409 72.6813 57.5085 74.8713C56.7762 77.0613 54.5744 75.8431 54.5744 75.8431C54.5744 75.8431 54.6824 72.7775 54.6542 70.5077C54.6284 68.2402 50.6991 66.9258 50.6991 66.9258C43.899 63.5081 43.6689 74.146 43.8638 77.8406C44.0586 81.5353 48.7837 81.9859 48.7837 81.9859C49.2038 83.0352 49.1945 84.2088 48.7579 85.251L44.2792 96.072C44.2792 96.072 32.5686 95.8959 29.0407 90.7225C25.9235 86.1524 28.3623 81.1855 32.1579 79.4884C35.9534 77.7913 38.9321 66.3319 41.6432 53.3233C44.3544 40.3123 58.2315 37.0988 68.0056 35.6482C73.4865 34.8361 79.7561 36.1998 84.3239 37.6082C89.4856 39.1997 94.0722 42.3286 97.2433 46.7039C99.2409 49.462 100.783 52.7341 100.192 55.8419C98.7761 63.3016 103.417 90.685 98.9709 99.4802C96.9265 103.527 78.5543 99.9943 78.5543 99.9943C78.5543 99.9943 91.5887 95.8419 94.8468 75.6999L94.8655 70.6955H94.8679Z" fill="black"/>
<path d="M84.9037 97.2808C77.1647 97.7667 70.9632 104.21 70.7496 111.961C70.5923 117.665 73.5922 122.678 78.1271 125.39L70.0618 142.619C68.7544 145.409 70.2003 148.714 73.1368 149.651C75.869 150.522 78.782 148.973 79.5895 146.219L85.0704 127.504C85.3403 127.519 85.6102 127.528 85.8849 127.528C94.2459 127.528 101.025 120.749 101.025 112.388C101.025 104.027 93.7107 96.7245 84.9061 97.2785L84.9037 97.2808Z" fill="#00956F"/>
<path d="M86.6477 123.444C92.1664 123.444 96.6401 118.97 96.6401 113.451C96.6401 107.933 92.1664 103.459 86.6477 103.459C81.1291 103.459 76.6553 107.933 76.6553 113.451C76.6553 118.97 81.1291 123.444 86.6477 123.444Z" fill="#00956F" stroke="black" stroke-miterlimit="10"/>
<path d="M73.6274 133.837C73.6274 133.837 74.2025 137.687 76.9629 136.746C79.7257 135.804 83.0447 133.772 83.3851 133.161C83.7231 132.551 87.3802 131.558 88.3989 135.105C88.3989 135.105 88.6031 138.584 84.878 140.954C84.878 140.954 86.6455 144.306 82.5424 146.764C82.5424 146.764 83.0025 150.182 77.5028 151.904C77.5028 151.904 78.6647 153.627 76.078 154.306C73.4936 154.982 65.2336 154.306 65.2336 154.306C65.2336 154.306 60.0766 145.633 64.2101 139.668C68.3437 133.706 73.6298 133.84 73.6298 133.84L73.6274 133.837Z" fill="white"/>
<path d="M77.1319 151.742C78.4205 152.191 78.1131 152.9 77.66 153.395C77.3291 153.756 76.9066 154.017 76.4441 154.184C75.1391 154.648 71.5501 155.571 66.1795 154.193C65.4307 154.001 64.6772 154.472 64.5411 155.233C63.2289 162.556 55.5252 194.977 22.7759 187.874C3.52816 183.698 5.27688 150.271 5.27688 134.342C5.27688 118.413 13.821 107.423 22.4965 105.285" stroke="#231F20" stroke-miterlimit="10"/>
<path d="M82.54 146.759C82.54 146.759 82.6292 150.853 76.8713 151.787C75.2775 152.045 73.6462 151.921 72.0876 151.503C70.6792 151.125 68.8694 150.555 67.9728 149.926" stroke="#231F20" stroke-miterlimit="10"/>
<path d="M84.824 140.844C84.824 140.844 86.8614 144.745 82.5401 146.757C78.2187 148.768 73.2307 149.928 66.8508 145.452" stroke="#231F20" stroke-miterlimit="10"/>
<path d="M73.6978 133.868C74.3879 138.509 79.4205 136.931 82.6034 133.57C85.1925 130.838 89.7767 133.549 88.1031 137.325C86.4295 141.102 76.5873 147.001 70.3342 141.316" stroke="#231F20" stroke-miterlimit="10"/>
<path d="M67.7803 90.7249C67.7803 90.7249 71.4514 97.6001 77.2375 92.8069" stroke="black" stroke-miterlimit="10"/>
<path d="M88.5796 109.219L83.3405 113.381C83.2208 113.477 83.31 113.67 83.4602 113.639L91.4128 112.057C91.5701 112.026 91.6569 112.231 91.5255 112.322L82.9321 118.23" stroke="black" stroke-miterlimit="10"/>
<path d="M34.2775 97.7057C34.2775 97.7057 7.049 101.673 3.83088 118.23C0.612755 134.788 1.01649 164.437 1.01649 164.437C1.01649 164.437 9.19442 147.658 38.1505 150.353L34.2775 97.7057Z" fill="#2A2173"/>
<path d="M1.01416 164.439C1.01416 164.439 7.31427 148.541 38.1482 150.355L36.6741 128.366C36.6741 125.235 34.0404 111.106 26.6183 108.513" stroke="black" stroke-miterlimit="10"/>
<path d="M58.7948 39.2748C58.7948 39.2748 55.4687 18.9614 50.1615 24.3226C44.8543 29.6861 38.9016 37.336 46.704 39.2748C54.5063 41.2137 58.7948 42.4366 58.7948 42.4366V39.2748Z" fill="black"/>
<path d="M202.819 118.956C200.418 94.5017 171.011 91.0887 171.011 91.0887C170.528 96.4687 170.504 101.957 167.497 105.231C162.258 110.937 157.761 111.074 153.609 110.128C143.006 107.71 146.067 96.065 146.067 96.065C123.188 111.407 122.096 135.096 121.876 151.433C121.876 151.433 125.392 154.702 125.411 156.047V189.015H203.017C203.017 189.015 203.934 130.305 202.819 118.953V118.956Z" fill="#00956F"/>
<path d="M168.082 66.3437C168.082 66.3437 163.904 64.7686 162.122 68.9468" stroke="black" stroke-miterlimit="10"/>
<path d="M169.584 42.7816C167.192 34.2868 153.355 26.3272 141.574 26.9164C141.574 26.9164 128.274 28.0853 121.054 38.857C121.054 38.857 108.848 43.5328 109.799 56.6846C109.799 56.6846 109.484 65.7263 113.165 68.9468C116.848 72.1673 119.129 71.3598 119.129 71.3598C119.129 71.3598 117.601 60.1797 118.216 52.9196L118.43 49.6287C118.935 53.0416 122.838 65.7146 152.874 60.1468C153.242 60.0905 153.587 60.0271 153.902 59.9544C153.907 59.9544 153.911 59.9544 153.918 59.952C154.055 59.9192 154.191 59.8863 154.315 59.8511C154.315 59.8511 154.998 68.1159 157.327 69.7308C157.327 69.7308 159.237 70.3716 159.289 69.5594C159.341 68.7496 158.176 64.6301 159.909 62.9354C161.639 61.2407 163.749 60.0154 166.361 60.1328C166.361 60.1328 171.976 51.2812 169.584 42.784V42.7816ZM118.547 47.7931C118.599 47.8588 118.622 47.9809 118.634 48.1428C118.589 48.2391 118.547 48.3353 118.505 48.4339L118.547 47.7931Z" fill="black"/>
<path d="M118.418 47.0373C118.418 47.0373 117.071 66.522 120.16 74.6413C120.16 74.6413 123.406 90.6826 136.642 94.3327L141.987 95.3443L146.285 95.0134C146.285 95.0134 143.647 105.874 148.306 108.893C152.188 111.409 158.683 114.378 165.718 108.656C168.279 106.574 170.169 103.78 171.295 100.68C172.342 97.7973 173.629 93.8585 173.596 92.0112L170.241 91.0887L164.807 77.4839C164.671 77.1341 164.615 76.7492 164.688 76.3806C164.779 75.9135 165.068 75.4464 165.908 75.7023C166.345 75.8361 170.525 74.7681 170.197 68.9468C169.866 63.1255 167.563 56.0273 159.913 62.9331C159.913 62.9331 158.881 64.9564 159.27 68.2872C159.27 68.2872 159.693 70.604 158.291 69.9702C156.888 69.3388 155.348 68.6252 154.32 59.8464C154.32 59.8464 121.502 65.1325 118.423 47.0373H118.418Z" fill="white"/>
<path d="M118.763 42.4366C118.763 42.4366 112.395 64.1043 154.315 59.8464C154.315 59.8464 155.108 69.7636 157.998 69.9702C160.89 70.1791 158.146 67.5126 159.209 64.2217C160.272 60.9308 168.479 55.4429 170.058 66.616C170.889 72.4889 168.692 75.1483 166.359 75.6999C165.652 75.8666 164.312 74.8338 164.725 77.6599L170.237 91.4173" stroke="black" stroke-miterlimit="10"/>
<path d="M118.418 47.0373C118.418 47.0373 111.599 93.6989 142.713 95.3279C146.402 95.5204 150.89 93.9571 153.041 91.0887C155.172 88.2462 157.303 84.4905 158.287 77.1012" stroke="black" stroke-miterlimit="10"/>
<path d="M119.129 71.3575C108.466 71.1674 109.107 56.6166 110.693 49.9034C112.28 43.1901 121.054 38.8571 121.054 38.8571C121.054 38.8571 137.584 13.4548 166.364 36.7492C166.364 36.7492 174.985 45.1478 166.364 60.1305" stroke="black" stroke-miterlimit="10"/>
<path d="M147.193 94.5322L149.536 101.44" stroke="black" stroke-miterlimit="10"/>
<path d="M127.206 71.395C127.957 71.395 128.565 70.7865 128.565 70.0359C128.565 69.2853 127.957 68.6768 127.206 68.6768C126.456 68.6768 125.847 69.2853 125.847 70.0359C125.847 70.7865 126.456 71.395 127.206 71.395Z" fill="#231F20"/>
<path d="M142.712 70.0359C143.463 70.0359 144.072 69.4274 144.072 68.6768C144.072 67.9262 143.463 67.3178 142.712 67.3178C141.962 67.3178 141.353 67.9262 141.353 68.6768C141.353 69.4274 141.962 70.0359 142.712 70.0359Z" fill="#231F20"/>
<path d="M123.155 67.1065C123.155 67.1065 123.134 63.088 128.033 64.1349" stroke="#231F20" stroke-miterlimit="10"/>
<path d="M139.861 63.0223C139.861 63.0223 142.09 59.6774 145.567 63.2852" stroke="#231F20" stroke-miterlimit="10"/>
<path d="M131.978 69.5571L132.462 81.8475L136.901 80.5165" stroke="black" stroke-miterlimit="10"/>
<path d="M140.13 85.9435C140.13 85.9435 147.693 87.826 148.015 80.3194" stroke="black" stroke-miterlimit="10"/>
<path d="M203.016 147.855H174.584V188.675H203.016V147.855Z" fill="white"/>
<path d="M174.584 147.855V188.677" stroke="black" stroke-miterlimit="10"/>
<path d="M203.016 148.198V189.017" stroke="black" stroke-miterlimit="10"/>
<path d="M118.801 1.00002H88.8565C85.7369 1.00002 83.2065 3.52803 83.2065 6.64991V24.562C83.2065 27.6816 85.7346 30.2119 88.8565 30.2119H101.795L100.722 35.998L112.193 30.2119H118.798C121.918 30.2119 124.448 27.6839 124.448 24.562V6.64991C124.448 3.53037 121.918 1.00002 118.798 1.00002H118.801Z" fill="white" stroke="#231F20" stroke-miterlimit="10"/>
<path d="M91.9572 11.5628C92.0112 12.1708 91.8 12.767 91.7249 13.3702C91.6474 13.9758 91.753 14.68 92.26 15.0227C92.8868 15.4452 93.7764 15.0579 94.2364 14.4594C94.6965 13.8608 94.889 13.1003 95.2528 12.4384C95.6166 11.7764 96.2786 11.1638 97.0297 11.26C98.3113 11.4267 98.4615 13.2177 99.2526 14.2411C100.133 15.3795 102.119 15.3748 102.994 14.234C103.684 13.335 103.966 11.7976 105.097 11.7741C106.787 11.7389 106.647 15.1166 108.33 15.2715C109.301 15.3607 109.888 14.2575 110.271 13.3609C110.653 12.4642 111.463 11.4267 112.376 11.7717C112.82 11.9384 113.083 12.3844 113.296 12.8069C113.51 13.2294 113.733 13.6871 114.148 13.9125C114.564 14.1401 115.219 13.9664 115.277 13.497" fill="white"/>
<path d="M91.8096 11.5628C91.8635 12.4008 91.4692 13.1989 91.5748 14.0392C91.6499 14.6331 91.9879 15.2011 92.6147 15.3232C93.2414 15.4452 93.8939 15.0908 94.2883 14.626C94.8094 14.011 94.9948 13.2059 95.3774 12.5111C95.7413 11.8562 96.4736 11.1567 97.2811 11.4736C97.8163 11.6825 98.0932 12.267 98.3162 12.7576C98.565 13.2974 98.7739 13.8702 99.1448 14.342C99.5157 14.8138 100.044 15.0908 100.612 15.1917C101.18 15.2926 101.79 15.2222 102.316 14.964C102.842 14.7058 103.201 14.2458 103.483 13.727C103.764 13.2083 103.994 12.5698 104.454 12.1731C104.837 11.8445 105.386 11.8351 105.766 12.1661C106.109 12.4618 106.306 12.9101 106.492 13.3115C106.694 13.7505 106.872 14.2058 107.142 14.6072C107.363 14.9405 107.654 15.2387 108.043 15.3607C108.581 15.5274 109.114 15.3138 109.496 14.9288C109.966 14.4523 110.198 13.8326 110.485 13.2435C110.771 12.6543 111.323 11.7905 112.078 11.8492C112.905 11.9126 113.132 12.9383 113.522 13.504C113.855 13.9876 114.414 14.3326 114.998 14.0603C115.219 13.957 115.376 13.774 115.423 13.5322C115.458 13.3468 115.177 13.2693 115.139 13.4547C115.073 13.7974 114.689 13.9171 114.379 13.842C113.97 13.7411 113.728 13.3139 113.548 12.9688C113.261 12.4266 112.982 11.7905 112.341 11.6004C111.769 11.429 111.222 11.7576 110.846 12.1684C110.391 12.666 110.179 13.2763 109.877 13.8632C109.595 14.4054 109.165 15.0955 108.482 15.1237C108.018 15.1448 107.661 14.8443 107.414 14.4781C106.914 13.7411 106.731 12.8116 106.147 12.1262C105.529 11.4032 104.553 11.5182 103.99 12.2482C103.64 12.7013 103.429 13.2435 103.145 13.7364C102.814 14.3091 102.356 14.7176 101.701 14.8725C101.107 15.0133 100.452 14.9359 99.9241 14.626C99.396 14.3162 99.1073 13.781 98.8584 13.2388C98.4571 12.3632 98.0322 11.0863 96.8609 11.0981C96.1239 11.1051 95.5253 11.6849 95.1732 12.2834C94.7343 13.0299 94.57 13.9876 93.9151 14.5932C93.2602 15.1988 92.225 15.2551 91.9293 14.2904C91.6546 13.389 92.1663 12.4712 92.1077 11.5581C92.0959 11.3703 91.8025 11.3703 91.8142 11.5581L91.8096 11.5628Z" fill="#231F20"/>
<path d="M91.8915 18.8112C91.9455 19.4191 91.7342 20.0153 91.6591 20.6186C91.5817 21.2242 91.6873 21.9284 92.1943 22.2711C92.821 22.6936 93.7106 22.3063 94.1707 21.7077C94.6308 21.1092 94.8233 20.3486 95.1871 19.6867C95.5509 19.0248 96.2128 18.4121 96.964 18.5084C98.2456 18.675 98.3958 20.466 99.1868 21.4894C100.067 22.6279 102.053 22.6232 102.928 21.4824C103.619 20.5834 103.9 19.0459 105.032 19.0224C106.722 18.9872 106.581 22.365 108.264 22.5199C109.236 22.6091 109.822 21.5059 110.205 20.6092C110.588 19.7125 111.397 18.675 112.311 19.0201C112.754 19.1867 113.017 19.6327 113.231 20.0552C113.444 20.4778 113.667 20.9355 114.083 21.1608C114.498 21.3861 115.153 21.2148 115.212 20.7453" fill="white"/>
<path d="M91.7436 18.8112C91.7976 19.6492 91.4033 20.4473 91.5089 21.2876C91.584 21.8815 91.922 22.4495 92.5488 22.5716C93.1755 22.6936 93.828 22.3392 94.2224 21.8744C94.7435 21.2594 94.9289 20.4543 95.3115 19.7595C95.6753 19.1046 96.4077 18.4051 97.2152 18.722C97.7503 18.9309 98.0273 19.5154 98.2503 20.006C98.4991 20.5458 98.708 21.1186 99.0789 21.5904C99.4498 22.0622 99.9779 22.3392 100.546 22.4401C101.114 22.541 101.724 22.4706 102.25 22.2124C102.776 21.9542 103.135 21.4941 103.417 20.9754C103.698 20.4567 103.928 19.8182 104.388 19.4215C104.771 19.0929 105.32 19.0835 105.701 19.4145C106.043 19.7102 106.24 20.1585 106.426 20.5599C106.628 20.9989 106.806 21.4542 107.076 21.8556C107.297 22.1889 107.588 22.4871 107.977 22.6091C108.515 22.7758 109.048 22.5622 109.43 22.1772C109.9 21.7007 110.132 21.081 110.419 20.4919C110.705 19.9027 111.257 19.0389 112.012 19.0976C112.839 19.161 113.066 20.1867 113.456 20.7524C113.789 21.236 114.348 21.581 114.932 21.3087C115.153 21.2054 115.31 21.0224 115.357 20.7806C115.393 20.5952 115.111 20.5177 115.073 20.7031C115.008 21.0458 114.623 21.1655 114.313 21.0904C113.904 20.9895 113.663 20.5623 113.482 20.2172C113.195 19.675 112.916 19.0389 112.275 18.8488C111.703 18.6774 111.156 19.006 110.78 19.4168C110.325 19.9144 110.113 20.5247 109.811 21.1116C109.529 21.6538 109.099 22.3439 108.416 22.372C107.952 22.3932 107.595 22.0927 107.348 21.7265C106.848 20.9895 106.665 20.06 106.081 19.3746C105.464 18.6516 104.487 18.7666 103.924 19.4966C103.574 19.9497 103.363 20.4919 103.079 20.9848C102.748 21.5575 102.29 21.966 101.635 22.1209C101.041 22.2617 100.386 22.1843 99.8582 21.8744C99.3301 21.5646 99.0413 21.0294 98.7925 20.4872C98.3911 19.6116 97.9663 18.3347 96.795 18.3465C96.0579 18.3535 95.4594 18.9333 95.1073 19.5318C94.6684 20.2783 94.504 21.236 93.8492 21.8416C93.1943 22.4472 92.1591 22.5035 91.8634 21.5388C91.5887 20.6374 92.1004 19.7196 92.0417 18.8065C92.03 18.6187 91.7366 18.6187 91.7483 18.8065L91.7436 18.8112Z" fill="#231F20"/>
<path d="M198.153 108.757C195.813 104.431 191.022 102.006 186.128 102.478C182.889 102.79 179.17 103.637 177.553 105.813C174.398 110.055 172.41 112.437 172.37 122.782C172.331 133.126 172.392 147.578 172.392 147.578H203.695C203.695 147.578 205.141 121.667 198.153 108.754V108.757Z" fill="#00956F"/>
<path d="M203.697 147.855H172.399C172.399 147.855 172.262 136.074 172.399 120.456C172.535 104.839 182.288 103.236 182.288 103.236" stroke="#3F3F3F" stroke-miterlimit="10"/>
<path d="M55.7786 189.017H98.978H158.979L173.481 187.644L98.978 168.779" fill="black"/>
<path d="M54.1495 163.512L39.9554 188.628L55.7785 189.017C55.7785 189.017 82.3849 173.488 98.8957 188.33L106.639 186.14L113.977 189.017C113.977 189.017 123.331 173.661 157.627 188.628L173.481 188.731L159.082 163.014C159.082 163.014 143.388 153.986 130.19 154.627C130.19 154.627 115.047 155.116 106.717 164.711C106.717 164.711 89.5887 146.236 60.5223 159.897L54.1471 163.512H54.1495Z" fill="white"/>
<path d="M106.543 185.06C106.543 185.06 95.7904 161.573 48.3635 181.145L60.5224 159.897C60.5224 159.897 88.5842 145.219 106.64 164.852L106.543 185.06Z" stroke="black" stroke-miterlimit="10"/>
<path d="M48.3634 181.145L39.9554 188.628L55.5156 188.71C55.5156 188.71 84.0984 173.798 99.3229 188.731L106.639 186.137" stroke="black" stroke-miterlimit="10"/>
<path d="M60.5247 159.897L54.1495 163.512L39.7982 188.733" stroke="black" stroke-miterlimit="10"/>
<path d="M106.801 184.881C106.801 184.881 117.489 161.514 164.915 181.088L152.757 159.841C152.757 159.841 124.695 145.163 106.639 164.796L106.804 184.881H106.801Z" stroke="black" stroke-miterlimit="10"/>
<path d="M164.915 181.088L173.323 188.571L157.763 188.653C157.763 188.653 129.18 173.741 113.956 188.675L106.639 186.081" stroke="black" stroke-miterlimit="10"/>
<path d="M152.756 159.841L159.129 163.455L173.481 188.677" stroke="black" stroke-miterlimit="10"/>
<path d="M122.829 167.833H75.5051L80.4367 162.801L80.9109 162.315L86.4434 156.665L86.9176 156.179L87.3354 155.752L92.2623 150.724L92.7365 150.238L96.9311 145.956C98.1587 144.705 100.17 144.705 101.398 145.956L105.593 150.238L106.067 150.724L110.994 155.752L111.411 156.179L111.886 156.665L117.418 162.315L117.892 162.801L122.824 167.833H122.829Z" fill="#00956F"/>
<path d="M106.069 150.726H92.2646L92.7388 150.24H105.595L106.069 150.726Z" fill="black"/>
<path d="M111.888 156.665H86.4434L86.9199 156.181H111.414L111.888 156.665Z" fill="black"/>
<path d="M117.897 162.801H80.4368L80.9109 162.315H117.421L117.897 162.801Z" fill="black"/>
<path d="M136.088 168.016H99.7056L103.496 164.146L103.863 163.772L108.116 159.43L108.482 159.057L108.804 158.728L112.592 154.862L112.958 154.489L116.184 151.198C117.127 150.236 118.674 150.236 119.618 151.198L122.843 154.489L123.209 154.862L126.997 158.728L127.319 159.057L127.685 159.43L131.939 163.772L132.305 164.146L136.096 168.016H136.088Z" fill="#00956F"/>
<path d="M123.204 154.864H112.59L112.954 154.491H122.838L123.204 154.864Z" fill="black"/>
<path d="M127.678 159.43H108.116L108.48 159.057H127.312L127.678 159.43Z" fill="black"/>
<path d="M132.295 164.146H103.496L103.863 163.775H131.931L132.295 164.146Z" fill="black"/>
<path d="M1.0141 188.733H205.484" stroke="black" stroke-miterlimit="10"/>
</svg>
