<svg width="424" height="401" viewBox="0 0 424 401" fill="none" xmlns="http://www.w3.org/2000/svg">
<path d="M19.0599 184.074C21.4197 184.074 23.3327 182.161 23.3327 179.801C23.3327 177.441 21.4197 175.528 19.0599 175.528C16.7001 175.528 14.7871 177.441 14.7871 179.801C14.7871 182.161 16.7001 184.074 19.0599 184.074Z" fill="white" stroke="white" stroke-width="2"/>
<path d="M27.4346 180.236C36.053 179.349 49.5761 180.398 51.1745 187.064C52.7728 193.731 46.6693 196.169 43.4179 196.555C31.0387 198.522 14.6245 197.596 14.6245 187.064" fill="white"/>
<path d="M27.4346 180.236C36.053 179.349 49.5761 180.398 51.1745 187.064C52.7728 193.731 46.6693 196.169 43.4179 196.555C31.0387 198.522 14.6245 197.596 14.6245 187.064" stroke="white" stroke-width="2" stroke-linecap="round"/>
<path d="M24.3205 190.318C24.8651 190.318 25.3065 189.876 25.3065 189.332C25.3065 188.787 24.8651 188.346 24.3205 188.346C23.7759 188.346 23.3345 188.787 23.3345 189.332C23.3345 189.876 23.7759 190.318 24.3205 190.318Z" fill="white" stroke="white" stroke-width="2"/>
<path d="M33.851 189.332C33.851 189.811 33.4048 190.318 32.7007 190.318C31.9966 190.318 31.5503 189.811 31.5503 189.332C31.5503 188.853 31.9966 188.346 32.7007 188.346C33.4048 188.346 33.851 188.853 33.851 189.332Z" fill="white" stroke="white" stroke-width="2"/>
<path d="M41.0827 190.318C41.6273 190.318 42.0687 189.876 42.0687 189.332C42.0687 188.787 41.6273 188.346 41.0827 188.346C40.5381 188.346 40.0967 188.787 40.0967 189.332C40.0967 189.876 40.5381 190.318 41.0827 190.318Z" fill="white" stroke="white" stroke-width="2"/>
<path d="M343.302 63.776C345.48 63.776 347.246 62.0101 347.246 59.8318C347.246 57.6535 345.48 55.8877 343.302 55.8877C341.124 55.8877 339.358 57.6535 339.358 59.8318C339.358 62.0101 341.124 63.776 343.302 63.776Z" fill="white" stroke="white" stroke-width="2"/>
<path d="M351.051 56.3848C353.941 56.3848 362.2 56.3848 366.084 56.3848C369.231 56.3848 370.746 57.0809 370.746 61.9532C370.746 66.6872 370.707 72.8193 370.746 75.2943C370.773 77.0343 369.907 78.96 367.017 79.2384C364.126 79.5168 352.527 79.3544 347.088 79.2384C345.068 79.2384 341.494 78.0933 341.494 73.4379V68.2175" fill="white"/>
<path d="M351.051 56.3848C353.941 56.3848 362.2 56.3848 366.084 56.3848C369.231 56.3848 370.746 57.0809 370.746 61.9532C370.746 66.6872 370.707 72.8193 370.746 75.2943C370.773 77.0343 369.907 78.96 367.017 79.2384C364.126 79.5168 352.527 79.3544 347.088 79.2384C345.068 79.2384 341.494 78.0933 341.494 73.4379V68.2175" stroke="white" stroke-width="2" stroke-linecap="round"/>
<path d="M349.053 64.5977L356.284 69.5278Z" fill="white"/>
<path d="M349.053 64.5977L356.284 69.5278" stroke="white" stroke-width="2" stroke-linecap="round"/>
<path d="M356.286 69.5293L369.433 57.3682Z" fill="white"/>
<path d="M356.286 69.5293L369.433 57.3682" stroke="white" stroke-width="2" stroke-linecap="round"/>
<path d="M359.617 66.5703L363.21 70.1858L366.802 73.8012" fill="white"/>
<path d="M359.617 66.5703L363.21 70.1858L366.802 73.8012" stroke="white" stroke-width="2" stroke-linecap="round"/>
<path d="M346.424 73.8012L351.725 66.5703" stroke="white" stroke-width="2" stroke-linecap="round"/>
<path d="M372.206 310.281C371.114 311.375 370.173 312.318 369.524 312.967C367.833 314.661 366.057 313.673 365.38 312.967L354.591 302.572C352.998 301.091 351.652 299.629 345.632 293.886C345.015 293.269 344.039 291.693 345.063 290.326C346.086 288.959 351.842 281.782 354.591 278.364C355.425 277.156 357.237 275.718 359.549 277.868C361.541 279.719 368.367 286.127 374.198 290.999" fill="white"/>
<path d="M372.206 310.281C371.114 311.375 370.173 312.318 369.524 312.967C367.833 314.661 366.057 313.673 365.38 312.967L354.591 302.572C352.998 301.091 351.652 299.629 345.632 293.886C345.015 293.269 344.039 291.693 345.063 290.326C346.086 288.959 351.842 281.782 354.591 278.364C355.425 277.156 357.237 275.718 359.549 277.868C361.541 279.719 368.367 286.127 374.198 290.999" stroke="white" stroke-width="2" stroke-linecap="round"/>
<path d="M354.477 278.732C354.816 284.967 357.104 295.004 368.938 298.782Z" fill="white"/>
<path d="M354.477 278.732C354.816 284.967 357.104 295.004 368.938 298.782" stroke="white" stroke-width="2" stroke-linecap="round"/>
<path d="M384.487 299.266C383.945 297.887 379.781 296.282 378.206 299.266C376.585 302.344 377.825 304.937 378.88 305.446C380.228 306.095 382.206 306.434 384.297 302.698" stroke="white" stroke-width="2" stroke-linecap="round"/>
<path d="M384.488 299.266C384.36 300.433 384.277 301.657 384.297 302.698Z" fill="white"/>
<path d="M384.833 297.347C384.711 298.067 384.586 298.37 384.488 299.266C384.36 300.433 384.277 301.657 384.297 302.698C384.337 304.524 384.698 305.784 385.724 305.176C387.781 303.956 388.892 302.955 389.188 301.935C389.681 300.219 389.684 296.934 386.91 294.786C383.564 292.192 379.791 292.263 376.823 294.786C373.876 297.29 373.07 301.298 373.231 303.378C373.408 305.653 375.106 310.538 380.645 310.615C386.184 310.691 389.185 307.705 389.645 306.307" stroke="white" stroke-width="2" stroke-linecap="round"/>
<path d="M92.8495 258.213C91.6679 253.651 87.7442 245.238 81.5045 248.082C75.2646 250.925 78.9044 256.02 81.5045 258.213C83.2541 259.397 87.0155 260.665 88.0633 256.257C89.1111 251.85 84.6954 250.037 83.4543 251.992C82.7999 252.762 82.0607 254.693 84.3407 256.257" fill="white"/>
<path d="M92.8495 258.213C91.6679 253.651 87.7442 245.238 81.5045 248.082C75.2646 250.925 78.9044 256.02 81.5045 258.213C83.2541 259.397 87.0155 260.665 88.0633 256.257C89.1111 251.85 84.6954 250.037 83.4543 251.992C82.7999 252.762 82.0607 254.693 84.3407 256.257" stroke="white" stroke-width="2" stroke-linecap="round"/>
<path d="M123.586 34.8523L126.529 36.3783C127.698 36.9842 129.09 36.9763 130.252 36.357L133.177 34.7974C134.64 34.0177 136.362 35.2537 136.091 36.8891L135.55 40.1599C135.335 41.4588 135.772 42.7803 136.72 43.6938L139.108 45.9944C140.301 47.1446 139.658 49.1643 138.019 49.412L134.741 49.9076C133.439 50.1043 132.317 50.929 131.741 52.1129L130.291 55.0943C129.566 56.585 127.446 56.5971 126.704 55.1148L125.22 52.1503C124.631 50.973 123.5 50.1612 122.196 49.9794L118.912 49.5214C117.27 49.2925 116.604 47.2803 117.784 46.1164L120.145 43.7887C121.083 42.8644 121.505 41.5379 121.275 40.2417L120.696 36.9773C120.406 35.3451 122.114 34.0894 123.586 34.8523Z" fill="white" stroke="white" stroke-width="2"/>
<path d="M222.184 184.045V211.983" stroke="white" stroke-width="2" stroke-linecap="round"/>
<path d="M243.22 187.332V213.955" stroke="white" stroke-width="2" stroke-linecap="round"/>
<path d="M194.019 308.316C187.073 309.181 170.812 312.371 167.251 318.857C166.182 320.803 164.942 325.539 168.533 328.911C172.123 332.285 178.685 331.398 181.516 330.533L198.026 323.884" fill="white"/>
<path d="M194.019 308.316C187.073 309.181 170.812 312.371 167.251 318.857C166.182 320.803 164.942 325.539 168.533 328.911C172.123 332.285 178.685 331.398 181.516 330.533L198.026 323.884" stroke="white" stroke-width="2" stroke-linecap="round"/>
<path d="M288.707 260.366L288.677 259.433L288.707 260.366C292.092 260.257 296.275 260.366 301.162 263.829L301.74 263.013L301.162 263.829C304.64 266.294 308.975 271.027 310.673 277.157C312.348 283.202 311.5 290.747 304.418 299.041C303.417 299.948 301.578 301.366 299.311 302.66C297.005 303.976 294.318 305.129 291.665 305.521L291.665 305.521C290.18 305.74 285.595 306.908 279.236 308.623C272.837 310.349 264.558 312.652 255.617 315.172C237.938 320.155 217.663 325.991 204.199 329.898C199.22 326.246 190.502 316.024 192.387 301.956C205.893 295.059 226.681 284.824 245.749 276.225C255.394 271.876 264.586 267.951 272.169 265.089C275.961 263.658 279.339 262.498 282.162 261.683C285.004 260.863 287.218 260.414 288.707 260.366Z" fill="white" stroke="white" stroke-width="2"/>
<path d="M167.205 256.487C169.364 256.631 173.477 257.676 178.839 259.351C184.16 261.013 190.604 263.259 197.364 265.744C209.971 270.377 223.643 275.829 233.113 279.837L191.72 300.521C172.599 306.113 160.933 304.267 157.459 303.119C152.41 300.674 149.163 297.368 147.223 293.671C145.269 289.951 144.607 285.774 144.838 281.573C145.299 273.168 149.324 264.845 153.343 260.363C158.399 256.092 163.97 256.271 167.205 256.487Z" fill="white" stroke="white" stroke-width="2"/>
<path d="M269.477 311.271C275.216 314.03 278.319 317.643 279.893 320.607C283.264 328.324 277.21 332.962 270.297 330.781C266.478 329.576 265.577 328.768 263.554 327.091C262.527 326.239 257.732 321.784 252.258 316.522" fill="white"/>
<path d="M269.477 311.271C275.216 314.03 278.319 317.643 279.893 320.607C283.264 328.324 277.21 332.962 270.297 330.781C266.478 329.576 265.577 328.768 263.554 327.091C262.527 326.239 257.732 321.784 252.258 316.522" stroke="white" stroke-width="2" stroke-linecap="round"/>
<path d="M159.65 186.564L163.323 253.313C163.615 258.614 167.999 262.763 173.308 262.763H283.178C288.701 262.763 293.178 258.286 293.178 252.763V184.484C293.178 178.909 288.619 174.41 283.044 174.485L169.5 176.016C163.815 176.092 159.338 180.887 159.65 186.564Z" fill="white" stroke="white" stroke-width="2"/>
<rect x="164.021" y="264.914" width="128.157" height="4.24488" rx="2.12244" fill="white" stroke="white" stroke-width="2"/>
<path d="M243.548 139.673C254.997 139.509 280.195 148.219 290.22 175.663" stroke="white" stroke-width="2" stroke-linecap="round"/>
<path d="M218.404 139.511C192.274 144.605 179.785 155.78 169.924 177.309" stroke="white" stroke-width="2" stroke-linecap="round"/>
<path d="M305.833 165.504L312.242 154.822" stroke="white" stroke-width="2" stroke-linecap="round"/>
<path d="M312.241 168.461L320.951 161.23" stroke="white" stroke-width="2" stroke-linecap="round"/>
<path d="M313.557 173.392C315.255 174.049 319.111 174.674 320.952 171.913" stroke="white" stroke-width="2" stroke-linecap="round"/>
<path d="M145.438 163.505L135.578 153.316" stroke="white" stroke-width="2" stroke-linecap="round"/>
<path d="M155.462 161.859L149.545 146.575" stroke="white" stroke-width="2" stroke-linecap="round"/>
<path d="M142.973 169.257L135.578 166.463" stroke="white" stroke-width="2" stroke-linecap="round"/>
<path d="M296.794 194.101C302.874 203.632 309.777 214.972 296.794 236.308" stroke="white" stroke-width="2" stroke-linecap="round"/>
<path d="M243.712 140.496C245.191 136.223 243.843 133.348 242.529 132.8C234.64 140.031 222.676 137.347 218.239 132.964C216.662 134.41 217.582 138.688 218.239 140.003C226.785 149.469 238.946 144.166 243.712 140.496Z" fill="white" stroke="white" stroke-width="2" stroke-linecap="round"/>
<path d="M208.708 166.79L209.371 165.773C213.092 160.062 220.334 157.782 226.655 160.331V160.331C232.331 162.62 238.835 161.032 242.818 156.385L247.986 150.356" stroke="white" stroke-width="2" stroke-linecap="round"/>
<path d="M157.27 200.148C154.805 205.955 151.88 220.033 159.9 229.894" stroke="white" stroke-width="2" stroke-linecap="round"/>
<path d="M266.372 73.3156C262.757 86.2984 260.949 87.4488 255.69 93.2006C255.69 87.5162 254.714 77.9748 254.714 74.0018C237.494 74.0018 222.962 66.9725 217.849 63.4579C218.032 75.377 206.858 83.1703 206.858 83.1703C206.858 83.1703 208.461 87.9837 209.377 98.7568C210.109 107.375 208.003 105.71 206.858 103.799C203.561 93.164 198.157 96.0062 195.867 98.7568C167.769 53.1019 210.979 44.2804 219.222 45.1209C225.45 39.8031 234.136 35.6358 240.242 35.0246C262.264 32.8202 272.235 52.2645 266.372 73.3156Z" fill="white" stroke="white" stroke-width="2" stroke-linecap="round"/>
<path d="M207.244 111.926C210.202 129.985 230.056 142.971 244.384 128.342C258.712 113.712 255.845 86.9342 254.314 74.4385" stroke="white" stroke-width="2" stroke-linecap="round"/>
<path d="M195.543 97.6377C193.735 102.075 195.431 111.907 207.244 111.907" stroke="white" stroke-width="2" stroke-linecap="round"/>
<path d="M200.753 100.076C200.491 101.026 200.7 103.275 203.628 104.678" stroke="white" stroke-width="2" stroke-linecap="round"/>
<path d="M253.916 109.609C257.771 108.001 260.489 102.049 259.443 92.5176" stroke="white" stroke-width="2" stroke-linecap="round"/>
<path d="M232.223 120.455C236.002 121.441 235.763 118.728 238.632 116.347" stroke="white" stroke-width="2" stroke-linecap="round"/>
<path d="M244.972 97.4934C244.972 98.3026 244.316 98.9585 243.507 98.9585C242.697 98.9585 242.042 98.3026 242.042 97.4934C242.042 96.6843 242.697 96.0283 243.507 96.0283C244.316 96.0283 244.972 96.6843 244.972 97.4934Z" fill="white" stroke="white" stroke-width="2"/>
<path d="M223.279 97.8225C223.279 98.6317 222.623 99.2876 221.814 99.2876C221.005 99.2876 220.349 98.6317 220.349 97.8225C220.349 97.0134 221.005 96.3574 221.814 96.3574C222.623 96.3574 223.279 97.0134 223.279 97.8225Z" fill="white" stroke="white" stroke-width="2"/>
<path d="M216.446 92.1877C216.965 90.6604 219.203 87.8348 224.005 88.7512" stroke="white" stroke-width="2" stroke-linecap="round"/>
<path d="M239.453 89.2278C240.599 88.2357 243.714 86.8467 247.013 89.2278" stroke="white" stroke-width="2" stroke-linecap="round"/>
<path d="M231.502 96.1318C231.119 99.3772 230.859 105.959 232.88 106.321" stroke="white" stroke-width="2" stroke-linecap="round"/>
<path d="M326.21 245.208C370.089 257.369 448.906 271.338 413.146 229.924C401.861 218.804 385.208 205.766 358.421 194.263" stroke="white" stroke-width="2" stroke-linecap="round"/>
<path d="M373.705 160.242C400.985 142.767 444.929 106.667 402.464 102.066C359.999 97.4642 321.226 113.405 307.147 121.951" stroke="white" stroke-width="2" stroke-linecap="round"/>
<path d="M268.034 134.704C286.111 95.7557 315.364 15.0323 287.755 3.72581C253.244 -10.4074 208.543 30.3487 172.06 127.637" stroke="white" stroke-width="2" stroke-linecap="round"/>
<path d="M131.856 101.154C91.4291 79.0233 8.89796 44.9832 2.19292 85.8707C-4.51212 126.758 77.4055 160.864 119.202 172.806" stroke="white" stroke-width="2" stroke-linecap="round"/>
<path d="M129.935 194.263C70.937 224.337 -2.98622 265.929 37.9605 287.607C54.7228 296.482 97.6155 291.058 117.336 283.006" stroke="white" stroke-width="2" stroke-linecap="round"/>
<path d="M306.805 391.14C306.805 391.236 306.695 391.643 305.643 392.266C304.668 392.844 303.165 393.435 301.137 394.016C297.096 395.174 291.2 396.229 283.858 397.119C269.188 398.897 248.894 400 226.457 400C204.021 400 183.726 398.897 169.056 397.119C161.714 396.229 155.819 395.174 151.778 394.016C149.749 393.435 148.247 392.844 147.272 392.266C146.219 391.643 146.109 391.236 146.109 391.14C146.109 391.043 146.219 390.636 147.272 390.013C148.247 389.435 149.749 388.844 151.778 388.263C155.819 387.105 161.714 386.05 169.056 385.16C183.726 383.382 204.021 382.279 226.457 382.279C248.894 382.279 269.188 383.382 283.858 385.16C291.2 386.05 297.096 387.105 301.137 388.263C303.165 388.844 304.668 389.435 305.643 390.013C306.695 390.636 306.805 391.043 306.805 391.14Z" fill="white" stroke="white" stroke-width="2"/>
</svg>
