<svg width="241" height="272" viewBox="0 0 241 272" fill="none" xmlns="http://www.w3.org/2000/svg">
<path d="M12 15C12 6.71573 18.7157 0 27 0H218C226.284 0 233 6.71573 233 15V257C233 265.284 226.284 272 218 272H12V15Z" fill="#D8D5D5"/>
<path d="M0 5C0 2.23858 2.23858 0 5 0H207C215.284 0 222 6.71573 222 15V272H0V5Z" fill="url(#paint0_linear_1124_6)"/>
<path d="M222 42H227C232.523 42 237 46.4772 237 52V245C237 250.523 232.523 255 227 255H222V42Z" fill="#003399"/>
<path d="M51 136C51 169.137 77.8629 196 111 196C144.137 196 171 169.137 171 136C171 102.863 144.137 76 111 76C77.8629 76 51 102.863 51 136Z" fill="#003399"/>
<path d="M110.603 87L108.472 93.56L111.752 94.6257L110.603 87Z" fill="#FFCC00"/>
<path d="M110.603 87L112.735 93.56L109.455 94.6257L110.603 87Z" fill="#FFCC00"/>
<path d="M117.163 91.7646H110.266V95.2134L117.163 91.7646Z" fill="#FFCC00"/>
<path d="M117.163 91.7646L111.583 95.8189L109.556 93.0288L117.163 91.7646Z" fill="#FFCC00"/>
<path d="M114.658 99.4756L112.526 92.9156L109.246 93.9813L114.658 99.4756Z" fill="#FFCC00"/>
<path d="M114.658 99.4756L109.078 95.4213L111.105 92.6312L114.658 99.4756Z" fill="#FFCC00"/>
<path d="M104.043 91.7646H110.941V95.2134L104.043 91.7646Z" fill="#FFCC00"/>
<path d="M104.043 91.7646L109.624 95.8189L111.651 93.0288L104.043 91.7646Z" fill="#FFCC00"/>
<path d="M106.549 99.4756L108.681 92.9156L111.961 93.9813L106.549 99.4756Z" fill="#FFCC00"/>
<path d="M106.549 99.4756L112.129 95.4213L110.102 92.6312L106.549 99.4756Z" fill="#FFCC00"/>
<path d="M110.603 169.77L108.472 176.33L111.752 177.395L110.603 169.77Z" fill="#FFCC00"/>
<path d="M110.603 169.77L112.735 176.33L109.455 177.395L110.603 169.77Z" fill="#FFCC00"/>
<path d="M117.163 174.537H110.266V177.986L117.163 174.537Z" fill="#FFCC00"/>
<path d="M117.163 174.537L111.583 178.591L109.556 175.801L117.163 174.537Z" fill="#FFCC00"/>
<path d="M114.658 182.248L112.526 175.688L109.246 176.754L114.658 182.248Z" fill="#FFCC00"/>
<path d="M114.658 182.248L109.077 178.194L111.105 175.404L114.658 182.248Z" fill="#FFCC00"/>
<path d="M104.043 174.537H110.941V177.986L104.043 174.537Z" fill="#FFCC00"/>
<path d="M104.043 174.537L109.624 178.591L111.651 175.801L104.043 174.537Z" fill="#FFCC00"/>
<path d="M106.549 182.248L108.681 175.688L111.961 176.754L106.549 182.248Z" fill="#FFCC00"/>
<path d="M106.549 182.248L112.129 178.194L110.102 175.404L106.549 182.248Z" fill="#FFCC00"/>
<path d="M69.218 128.385L67.0866 134.945L70.3666 136.01L69.218 128.385Z" fill="#FFCC00"/>
<path d="M69.218 128.385L71.3495 134.945L68.0695 136.01L69.218 128.385Z" fill="#FFCC00"/>
<path d="M75.778 133.15H68.8804V136.599L75.778 133.15Z" fill="#FFCC00"/>
<path d="M75.778 133.15L70.1978 137.205L68.1706 134.415L75.778 133.15Z" fill="#FFCC00"/>
<path d="M73.2723 140.861L71.1408 134.301L67.8608 135.367L73.2723 140.861Z" fill="#FFCC00"/>
<path d="M73.2723 140.861L67.692 136.807L69.7192 134.017L73.2723 140.861Z" fill="#FFCC00"/>
<path d="M62.6581 133.15H69.5557V136.599L62.6581 133.15Z" fill="#FFCC00"/>
<path d="M62.6581 133.15L68.2383 137.205L70.2655 134.415L62.6581 133.15Z" fill="#FFCC00"/>
<path d="M65.1638 140.861L67.2952 134.301L70.5752 135.367L65.1638 140.861Z" fill="#FFCC00"/>
<path d="M65.1638 140.861L70.744 136.807L68.7169 134.017L65.1638 140.861Z" fill="#FFCC00"/>
<path d="M85.8564 105.021L91.4366 100.967L89.4095 98.1771L85.8564 105.021Z" fill="#FFCC00"/>
<path d="M85.8564 105.021L87.9878 98.4615L91.2678 99.5272L85.8564 105.021Z" fill="#FFCC00"/>
<path d="M83.3508 97.3105L88.931 101.365L90.9582 98.5747L83.3508 97.3105Z" fill="#FFCC00"/>
<path d="M83.3508 97.3105H90.2483V100.759L83.3508 97.3105Z" fill="#FFCC00"/>
<path d="M89.9107 92.5439L87.7792 99.1039L91.0592 100.17L89.9107 92.5439Z" fill="#FFCC00"/>
<path d="M89.9107 92.5439L92.0421 99.1039L88.7622 100.17L89.9107 92.5439Z" fill="#FFCC00"/>
<path d="M93.965 105.022L88.3848 100.968L90.4119 98.178L93.965 105.022Z" fill="#FFCC00"/>
<path d="M93.965 105.022L91.8336 98.4625L88.5536 99.5282L93.965 105.022Z" fill="#FFCC00"/>
<path d="M96.4707 97.3115L90.8904 101.366L88.8633 98.5757L96.4707 97.3115Z" fill="#FFCC00"/>
<path d="M96.4707 97.3115H89.5731V100.76L96.4707 97.3115Z" fill="#FFCC00"/>
<path d="M78.8168 120.17L76.6853 113.61L73.4053 114.676L78.8168 120.17Z" fill="#FFCC00"/>
<path d="M78.8168 120.17L73.2365 116.116L75.2637 113.325L78.8168 120.17Z" fill="#FFCC00"/>
<path d="M70.7082 120.171L76.2884 116.117L74.2613 113.326L70.7082 120.171Z" fill="#FFCC00"/>
<path d="M70.7082 120.171L72.8397 113.611L76.1197 114.677L70.7082 120.171Z" fill="#FFCC00"/>
<path d="M68.2026 112.46L73.7829 116.514L75.81 113.724L68.2026 112.46Z" fill="#FFCC00"/>
<path d="M68.2026 112.46H75.1002V115.909L68.2026 112.46Z" fill="#FFCC00"/>
<path d="M81.3226 112.46L75.7423 116.514L73.7152 113.724L81.3226 112.46Z" fill="#FFCC00"/>
<path d="M81.3226 112.46H74.425V115.909L81.3226 112.46Z" fill="#FFCC00"/>
<path d="M74.7625 107.693L76.894 114.253L73.614 115.319L74.7625 107.693Z" fill="#FFCC00"/>
<path d="M74.7625 107.693L72.6311 114.253L75.9111 115.319L74.7625 107.693Z" fill="#FFCC00"/>
<path d="M81.3226 153.844H74.425V157.293L81.3226 153.844Z" fill="#FFCC00"/>
<path d="M81.3226 153.844L75.7423 157.898L73.7152 155.108L81.3226 153.844Z" fill="#FFCC00"/>
<path d="M78.817 161.555L76.6856 154.995L73.4056 156.06L78.817 161.555Z" fill="#FFCC00"/>
<path d="M78.817 161.555L73.2368 157.5L75.2639 154.71L78.817 161.555Z" fill="#FFCC00"/>
<path d="M70.7083 161.556L76.2885 157.501L74.2614 154.711L70.7083 161.556Z" fill="#FFCC00"/>
<path d="M70.7083 161.556L72.8398 154.996L76.1197 156.061L70.7083 161.556Z" fill="#FFCC00"/>
<path d="M74.7627 149.08L76.8941 155.64L73.6141 156.706L74.7627 149.08Z" fill="#FFCC00"/>
<path d="M74.7627 149.08L72.6312 155.64L75.9112 156.706L74.7627 149.08Z" fill="#FFCC00"/>
<path d="M68.2027 153.846H75.1003V157.294L68.2027 153.846Z" fill="#FFCC00"/>
<path d="M68.2027 153.846L73.783 157.9L75.8101 155.11L68.2027 153.846Z" fill="#FFCC00"/>
<path d="M96.4707 168.991H89.5731V172.44L96.4707 168.991Z" fill="#FFCC00"/>
<path d="M96.4707 168.991L90.8904 173.046L88.8633 170.255L96.4707 168.991Z" fill="#FFCC00"/>
<path d="M93.965 176.702L91.8335 170.142L88.5535 171.208L93.965 176.702Z" fill="#FFCC00"/>
<path d="M93.965 176.702L88.3847 172.648L90.4119 169.858L93.965 176.702Z" fill="#FFCC00"/>
<path d="M85.8564 176.703L91.4367 172.649L89.4095 169.859L85.8564 176.703Z" fill="#FFCC00"/>
<path d="M85.8564 176.703L87.9879 170.143L91.2679 171.209L85.8564 176.703Z" fill="#FFCC00"/>
<path d="M89.9107 164.224L92.0422 170.784L88.7622 171.849L89.9107 164.224Z" fill="#FFCC00"/>
<path d="M89.9107 164.224L87.7793 170.784L91.0593 171.849L89.9107 164.224Z" fill="#FFCC00"/>
<path d="M83.3506 168.991H90.2482V172.44L83.3506 168.991Z" fill="#FFCC00"/>
<path d="M83.3506 168.991L88.9309 173.046L90.9581 170.255L83.3506 168.991Z" fill="#FFCC00"/>
<path d="M151.989 128.385L154.12 134.945L150.84 136.01L151.989 128.385Z" fill="#FFCC00"/>
<path d="M151.989 128.385L149.857 134.945L153.137 136.01L151.989 128.385Z" fill="#FFCC00"/>
<path d="M145.429 133.15H152.327V136.599L145.429 133.15Z" fill="#FFCC00"/>
<path d="M145.429 133.15L151.009 137.205L153.036 134.415L145.429 133.15Z" fill="#FFCC00"/>
<path d="M147.935 140.861L150.066 134.301L153.346 135.367L147.935 140.861Z" fill="#FFCC00"/>
<path d="M147.935 140.861L153.515 136.807L151.488 134.017L147.935 140.861Z" fill="#FFCC00"/>
<path d="M158.549 133.15H151.651V136.599L158.549 133.15Z" fill="#FFCC00"/>
<path d="M158.549 133.15L152.969 137.205L150.942 134.415L158.549 133.15Z" fill="#FFCC00"/>
<path d="M156.043 140.861L153.912 134.301L150.632 135.367L156.043 140.861Z" fill="#FFCC00"/>
<path d="M156.043 140.861L150.463 136.807L152.49 134.017L156.043 140.861Z" fill="#FFCC00"/>
<path d="M135.351 105.021L129.77 100.967L131.797 98.1771L135.351 105.021Z" fill="#FFCC00"/>
<path d="M135.351 105.021L133.219 98.4615L129.939 99.5272L135.351 105.021Z" fill="#FFCC00"/>
<path d="M137.856 97.3105L132.276 101.365L130.249 98.5747L137.856 97.3105Z" fill="#FFCC00"/>
<path d="M137.856 97.3105H130.959V100.759L137.856 97.3105Z" fill="#FFCC00"/>
<path d="M131.296 92.5439L133.428 99.1039L130.148 100.17L131.296 92.5439Z" fill="#FFCC00"/>
<path d="M131.296 92.5439L129.165 99.1039L132.445 100.17L131.296 92.5439Z" fill="#FFCC00"/>
<path d="M127.242 105.022L132.822 100.968L130.795 98.178L127.242 105.022Z" fill="#FFCC00"/>
<path d="M127.242 105.022L129.373 98.4625L132.653 99.5282L127.242 105.022Z" fill="#FFCC00"/>
<path d="M124.736 97.3115L130.316 101.366L132.344 98.5757L124.736 97.3115Z" fill="#FFCC00"/>
<path d="M124.736 97.3115H131.634V100.76L124.736 97.3115Z" fill="#FFCC00"/>
<path d="M142.39 120.17L144.522 113.61L147.802 114.676L142.39 120.17Z" fill="#FFCC00"/>
<path d="M142.39 120.17L147.97 116.116L145.943 113.325L142.39 120.17Z" fill="#FFCC00"/>
<path d="M150.499 120.171L144.918 116.117L146.946 113.326L150.499 120.171Z" fill="#FFCC00"/>
<path d="M150.499 120.171L148.367 113.611L145.087 114.677L150.499 120.171Z" fill="#FFCC00"/>
<path d="M153.004 112.46L147.424 116.514L145.397 113.724L153.004 112.46Z" fill="#FFCC00"/>
<path d="M153.004 112.46H146.107V115.909L153.004 112.46Z" fill="#FFCC00"/>
<path d="M139.885 112.46L145.465 116.514L147.492 113.724L139.885 112.46Z" fill="#FFCC00"/>
<path d="M139.885 112.46H146.782V115.909L139.885 112.46Z" fill="#FFCC00"/>
<path d="M146.444 107.693L144.313 114.253L147.593 115.319L146.444 107.693Z" fill="#FFCC00"/>
<path d="M146.444 107.693L148.576 114.253L145.296 115.319L146.444 107.693Z" fill="#FFCC00"/>
<path d="M139.884 153.844H146.782V157.293L139.884 153.844Z" fill="#FFCC00"/>
<path d="M139.884 153.844L145.465 157.898L147.492 155.108L139.884 153.844Z" fill="#FFCC00"/>
<path d="M142.39 161.555L144.521 154.995L147.801 156.06L142.39 161.555Z" fill="#FFCC00"/>
<path d="M142.39 161.555L147.97 157.5L145.943 154.71L142.39 161.555Z" fill="#FFCC00"/>
<path d="M150.499 161.556L144.918 157.501L146.945 154.711L150.499 161.556Z" fill="#FFCC00"/>
<path d="M150.499 161.556L148.367 154.996L145.087 156.061L150.499 161.556Z" fill="#FFCC00"/>
<path d="M146.444 149.08L144.313 155.64L147.593 156.706L146.444 149.08Z" fill="#FFCC00"/>
<path d="M146.444 149.08L148.576 155.64L145.296 156.706L146.444 149.08Z" fill="#FFCC00"/>
<path d="M153.004 153.846H146.107V157.294L153.004 153.846Z" fill="#FFCC00"/>
<path d="M153.004 153.846L147.424 157.9L145.397 155.11L153.004 153.846Z" fill="#FFCC00"/>
<path d="M124.736 168.992H131.634V172.441L124.736 168.992Z" fill="#FFCC00"/>
<path d="M124.736 168.992L130.316 173.046L132.344 170.256L124.736 168.992Z" fill="#FFCC00"/>
<path d="M127.242 176.703L129.373 170.143L132.653 171.209L127.242 176.703Z" fill="#FFCC00"/>
<path d="M127.242 176.703L132.822 172.649L130.795 169.859L127.242 176.703Z" fill="#FFCC00"/>
<path d="M135.35 176.704L129.77 172.65L131.797 169.86L135.35 176.704Z" fill="#FFCC00"/>
<path d="M135.35 176.704L133.219 170.144L129.939 171.21L135.35 176.704Z" fill="#FFCC00"/>
<path d="M131.296 164.225L129.165 170.785L132.445 171.85L131.296 164.225Z" fill="#FFCC00"/>
<path d="M131.296 164.225L133.428 170.785L130.148 171.85L131.296 164.225Z" fill="#FFCC00"/>
<path d="M137.856 168.992H130.959V172.441L137.856 168.992Z" fill="#FFCC00"/>
<path d="M137.856 168.992L132.276 173.046L130.249 170.256L137.856 168.992Z" fill="#FFCC00"/>
<defs>
<linearGradient id="paint0_linear_1124_6" x1="111" y1="1.68204e-07" x2="111.041" y2="272" gradientUnits="userSpaceOnUse">
<stop stop-color="white"/>
<stop offset="1" stop-color="#C0C0C0"/>
</linearGradient>
</defs>
</svg>
